<svg xmlns="http://www.w3.org/2000/svg" width="1200" height="630" viewBox="0 0 1200 630" role="img" aria-label="LOLScript.store">
  <defs>
    <linearGradient id="bg" x1="0" y1="0" x2="1" y2="1">
      <stop offset="0%" stop-color="#241844"/>
      <stop offset="52%" stop-color="#140d27"/>
      <stop offset="100%" stop-color="#0a0614"/>
    </linearGradient>
    <linearGradient id="glow" x1="0" y1="0" x2="1" y2="1">
      <stop offset="0%" stop-color="#c4b5fd"/>
      <stop offset="100%" stop-color="#6d28d9"/>
    </linearGradient>
    <radialGradient id="halo" cx="50%" cy="20%" r="60%">
      <stop offset="0%" stop-color="#8b5cf6" stop-opacity=".40"/>
      <stop offset="100%" stop-color="#8b5cf6" stop-opacity="0"/>
    </radialGradient>
    <filter id="shadow" x="-40%" y="-40%" width="180%" height="180%">
      <feDropShadow dx="0" dy="18" stdDeviation="22" flood-color="#4c1d95" flood-opacity=".5"/>
    </filter>
  </defs>
  <rect width="1200" height="630" fill="url(#bg)"/>
  <rect width="1200" height="630" fill="url(#halo)"/>
  <path d="M-60 500c160-90 300-90 412 0s262 90 412 0 200-70 290-26" fill="none" stroke="#a78bfa" stroke-width="3" opacity=".12"/>
  <g filter="url(#shadow)" transform="translate(600 168)">
    <path d="M0 -70 62 -34v72L0 76-62 38v-72Z" fill="url(#glow)"/>
    <g transform="translate(-31 -46) scale(2.0)">
      <path d="M9.63 14.94V23.38c0 .76-.84 1.25-1.54.89-.34-.18-.56-.52-.56-.9V1.18H0l2.85 1.49v23.18l11.82 6.13-.21-12.36c0-1.26-.85-2.41-1.97-3.05L9.63 14.94Z" fill="#fff"/>
      <path d="M9.5 10.38c0 .79.45 1.53 1.17 1.92l3.46 1.88V.98h-3.64c-.55 0-.99.42-.99.95v8.45Z" fill="#fff"/>
      <path d="M25.94 9.09c.91-.5 1.47-1.44 1.47-2.47V2.67L29.72.98H17.35c-.86 0-1.56.69-1.56 1.55v14.76c0 .81.88 1.31 1.59.93l3.6-2.04c.71-.4 1.59.07 1.59.91v7.61c0 .58-.47 1.05-1.06 1.05h-.01c-.59 0-1.06-.47-1.06-1.05v-4.81l-4.08 2.15c-.35.18-.56.54-.56.93v9.03l11.08-6.28c.33-.19.54-.54.54-.92V13.31c0-.81-.87-1.32-1.58-.92l-3.72 2.08c-.7.4-1.58-.11-1.58-.95l-.08-10.51c0-.59.48-1.06 1.06-1.06.59 0 1.06.47 1.06 1.05v7.89l3.37-1.84Z" fill="#fff"/>
    </g>
  </g>
  <text x="600" y="330" text-anchor="middle" font-family="Arial, Helvetica, sans-serif" font-size="80" font-weight="900" fill="#ffffff">LOLScript.store</text>
  <text x="600" y="392" text-anchor="middle" font-family="Arial, Helvetica, sans-serif" font-size="34" font-weight="800" fill="#a78bfa">Fully Undetected League of Legends Tools</text>
  <g font-family="Arial, Helvetica, sans-serif" font-size="28" font-weight="800">
    <rect x="206" y="448" width="248" height="68" rx="14" fill="#ffffff" fill-opacity=".05" stroke="#a78bfa" stroke-opacity=".4"/>
    <text x="330" y="490" text-anchor="middle" fill="#e9e4ff">LoL Script</text>
    <rect x="470" y="448" width="260" height="68" rx="14" fill="#ffffff" fill-opacity=".05" stroke="#a78bfa" stroke-opacity=".4"/>
    <text x="600" y="490" text-anchor="middle" fill="#e9e4ff">Vanguard Emulator</text>
    <rect x="746" y="448" width="248" height="68" rx="14" fill="#ffffff" fill-opacity=".05" stroke="#a78bfa" stroke-opacity=".4"/>
    <text x="870" y="490" text-anchor="middle" fill="#e9e4ff">Perm Spoofer</text>
  </g>
  <text x="600" y="566" text-anchor="middle" font-family="Arial, Helvetica, sans-serif" font-size="26" font-weight="600" fill="#b9c0d0">Instant key delivery &#183; Secure checkout &#183; Live Discord support</text>
</svg>
